General                          : ChattChitto RG - Movies [R2L]
==========
Complete name                    : No Country for Old Men 2007 720p BDRip H264 [ChattChitto RG]
Format                           : MPEG-4
Format profile                   : Base Media
Codec ID                         : isom
File size                        : 2.24 GiB
Duration                         : 2h 2mn
Overall bit rate                 : 2 627 Kbps
Encoded date                     : UTC 2011-02-14 15:46:23

Video
==========
ID                               : 1
Format                           : AVC
Format/Info                      : Advanced Video Codec
Format profile                   : High@L4.0
Format settings, CABAC           : Yes
Format settings, ReFrames        : 4 frames
Codec ID                         : avc1
Codec ID/Info                    : Advanced Video Coding
Duration                         : 2h 2mn
Bit rate mode                    : Variable
Bit rate                         : 2 300 Kbps
Maximum bit rate                 : 17.9 Mbps
Width                            : 1 280 pixels
Height                           : 544 pixels
Display aspect ratio             : 2.35:1
Frame rate mode                  : Constant
Frame rate                       : 23.976 fps
Resolution                       : 24 bits
Colorimetry                      : 4:2:0
Scan type                        : Progressive
Bits/(Pixel*Frame)               : 0.138
Stream size                      : 1.96 GiB (88%)
Writing library                  : x264 core 84 r1400M 20fa784
Encoded date                     : UTC 2011-02-14 11:26:48

Audio
==========
ID                               : 2
Format                           : AAC
Format/Info                      : Advanced Audio Codec
Format version                   : Version 4
Format profile                   : LC
Format settings, SBR             : No
Codec ID                         : 40
Duration                         : 2h 2mn
Bit rate mode                    : Variable
Bit rate                         : 324 Kbps
Maximum bit rate                 : 475 Kbps
Channel(s)                       : 6 channels
Channel positions                : Front: L C R, Rear: L R, LFE
Sampling rate                    : 48.0 KHz
Resolution                       : 16 bits
Stream size                      : 283 MiB (12%)
Encoded date                     : UTC 2011-02-14 15:47:36

Subtitles                        : English | French Spanish


----------------------------------------------------
IMDB Link: http://www.imdb.com/title/tt0477348/
----------------------------------------------------



Screen Shots:
==============    
http://chattchitto.net/chattchittorg/movies/bdrip/2011/no_country_for_old_men/3.png 
http://chattchitto.net/chattchittorg/movies/bdrip/2011/no_country_for_old_men/4.png 
http://chattchitto.net/chattchittorg/movies/bdrip/2011/no_country_for_old_men/5.png 
http://chattchitto.net/chattchittorg/movies/bdrip/2011/no_country_for_old_men/6.png 
http://chattchitto.net/chattchittorg/movies/bdrip/2011/no_country_for_old_men/7.png



ScreenShots Comparison:
=========================  
http://screenshotcomparison.com/comparison/29250



Plot:
======
Violence and mayhem ensue after a hunter stumbles upon some dead bodies, a stash of heroin and more than $2 million in cash near the Rio Grande.



Release Info:
==============
original name .... : No Country for Old Men 2007 720p BDRip H264 [ChattChitto RG]
ripper.............: Recalled2Life (R2L)
encoder............: Recalled2Life (R2L)
video codec........: H264/.MP4
video bitrate......: 2300 Kbps
audio codec........: AAC-LC
aspect ratio.......: 2.35:1
resolution.........: 1280 x 544
genre..............: Crime | Drama | Mystery
runtime............: 2h 2mn
language...........: English
rating.............: R
subtitles..........: English | French | Spanish
sample.............: Yes [15 MB]
2ch Audio..........: 2ch Audio for XBox Viewers
Compatibility .....: XBox | PS3 | WD Live



Source:
========
No Country for Old Men 2007 1080p Blu-ray MPEG-4 AVC/LPCM-R2L [26.6 GB] Welcome!



Notes:
=======
ChattChitto RG Encourages Burning this Film with ConvertXtoDVD and Playing with VLC media player.
XBox 360 | PS3 | WD Live - Compatible 
Enhanced for your viewing pleasure ;)